<svg xmlns="http://www.w3.org/2000/svg" xmlns:xlink="http://www.w3.org/1999/xlink" width="1753" zoomAndPan="magnify" viewBox="0 0 1314.75 437.249996" height="583" preserveAspectRatio="xMidYMid meet" version="1.0"><defs><g/><clipPath id="af6f6b2473"><path d="M 100.695312 81.535156 L 373.976562 81.535156 L 373.976562 307 L 100.695312 307 Z M 100.695312 81.535156 " clip-rule="nonzero"/></clipPath><clipPath id="e507d60253"><path d="M 147 181 L 333 181 L 333 354.816406 L 147 354.816406 Z M 147 181 " clip-rule="nonzero"/></clipPath></defs><g clip-path="url(#af6f6b2473)"><path fill="#ffffff" d="M 237.40625 139.0625 C 281.132812 139.0625 316.59375 174.523438 316.59375 218.246094 C 316.59375 219.726562 316.550781 221.195312 316.472656 222.652344 C 325.15625 233.292969 332.464844 245.351562 338.074219 258.902344 C 343.273438 271.453125 346.683594 284.675781 348.359375 298.121094 C 364.5625 275.648438 374.121094 248.0625 374.121094 218.246094 C 374.121094 142.757812 312.898438 81.535156 237.40625 81.535156 C 161.917969 81.535156 100.695312 142.757812 100.695312 218.246094 C 100.695312 252.101562 113.011719 283.078125 133.402344 306.960938 C 154.910156 303.492188 176.253906 296.132812 191.601562 282.84375 C 171.402344 268.492188 158.222656 244.90625 158.222656 218.246094 C 158.222656 174.523438 193.683594 139.0625 237.40625 139.0625 Z M 237.40625 139.0625 " fill-opacity="1" fill-rule="evenodd"/></g><g clip-path="url(#e507d60253)"><path fill="#ffffff" d="M 214.285156 181.722656 C 253.046875 254.230469 215.105469 305.707031 147.507812 321.226562 C 171.542969 342.230469 202.992188 354.960938 237.40625 354.960938 C 274.613281 354.960938 308.34375 340.082031 332.996094 315.964844 C 332.335938 259.011719 297.605469 200.246094 214.285156 181.722656 Z M 214.285156 181.722656 " fill-opacity="1" fill-rule="evenodd"/></g><g fill="#ffffff" fill-opacity="1"><g transform="translate(425.663384, 291.830842)"><g><path d="M 9.75 -59.0625 C 9.75 -70.425781 11.984375 -80.644531 16.453125 -89.71875 C 20.921875 -98.789062 27.132812 -105.789062 35.09375 -110.71875 C 43.0625 -115.65625 52.15625 -118.125 62.375 -118.125 C 78.164062 -118.125 90.9375 -112.65625 100.6875 -101.71875 C 110.445312 -90.78125 115.328125 -76.238281 115.328125 -58.09375 L 115.328125 -56.703125 C 115.328125 -45.410156 113.164062 -35.28125 108.84375 -26.3125 C 104.519531 -17.34375 98.335938 -10.359375 90.296875 -5.359375 C 82.265625 -0.359375 73.03125 2.140625 62.59375 2.140625 C 46.875 2.140625 34.132812 -3.320312 24.375 -14.25 C 14.625 -25.1875 9.75 -39.660156 9.75 -57.671875 Z M 29.6875 -56.703125 C 29.6875 -43.835938 32.671875 -33.507812 38.640625 -25.71875 C 44.609375 -17.9375 52.59375 -14.046875 62.59375 -14.046875 C 72.664062 -14.046875 80.664062 -17.992188 86.59375 -25.890625 C 92.53125 -33.785156 95.5 -44.84375 95.5 -59.0625 C 95.5 -71.78125 92.476562 -82.085938 86.4375 -89.984375 C 80.40625 -97.878906 72.382812 -101.828125 62.375 -101.828125 C 52.59375 -101.828125 44.695312 -97.929688 38.6875 -90.140625 C 32.6875 -82.347656 29.6875 -71.203125 29.6875 -56.703125 Z M 29.6875 -56.703125 "/></g></g></g><g fill="#ffffff" fill-opacity="1"><g transform="translate(550.857496, 291.830842)"><g><path d="M 71.0625 -98.1875 C 68.0625 -98.6875 64.8125 -98.9375 61.3125 -98.9375 C 48.300781 -98.9375 39.472656 -93.394531 34.828125 -82.3125 L 34.828125 0 L 15 0 L 15 -115.96875 L 34.296875 -115.96875 L 34.625 -102.578125 C 41.125 -112.941406 50.34375 -118.125 62.28125 -118.125 C 66.132812 -118.125 69.0625 -117.625 71.0625 -116.625 Z M 71.0625 -98.1875 "/></g></g></g><g fill="#ffffff" fill-opacity="1"><g transform="translate(625.137917, 291.830842)"><g><path d="M 61.53125 -14.046875 C 68.601562 -14.046875 74.78125 -16.1875 80.0625 -20.46875 C 85.351562 -24.757812 88.285156 -30.117188 88.859375 -36.546875 L 107.609375 -36.546875 C 107.253906 -29.898438 104.96875 -23.578125 100.75 -17.578125 C 96.539062 -11.578125 90.914062 -6.789062 83.875 -3.21875 C 76.832031 0.351562 69.382812 2.140625 61.53125 2.140625 C 45.738281 2.140625 33.175781 -3.125 23.84375 -13.65625 C 14.519531 -24.195312 9.859375 -38.617188 9.859375 -56.921875 L 9.859375 -60.234375 C 9.859375 -71.523438 11.929688 -81.566406 16.078125 -90.359375 C 20.222656 -99.148438 26.171875 -105.972656 33.921875 -110.828125 C 41.671875 -115.691406 50.835938 -118.125 61.421875 -118.125 C 74.421875 -118.125 85.222656 -114.226562 93.828125 -106.4375 C 102.441406 -98.644531 107.035156 -88.535156 107.609375 -76.109375 L 88.859375 -76.109375 C 88.285156 -83.609375 85.441406 -89.769531 80.328125 -94.59375 C 75.222656 -99.414062 68.921875 -101.828125 61.421875 -101.828125 C 51.335938 -101.828125 43.523438 -98.195312 37.984375 -90.9375 C 32.453125 -83.6875 29.6875 -73.203125 29.6875 -59.484375 L 29.6875 -55.734375 C 29.6875 -42.367188 32.4375 -32.078125 37.9375 -24.859375 C 43.445312 -17.648438 51.3125 -14.046875 61.53125 -14.046875 Z M 61.53125 -14.046875 "/></g></g></g><g fill="#ffffff" fill-opacity="1"><g transform="translate(740.042104, 291.830842)"><g><path d="M 86.609375 0 C 85.460938 -2.289062 84.53125 -6.363281 83.8125 -12.21875 C 74.59375 -2.644531 63.59375 2.140625 50.8125 2.140625 C 39.375 2.140625 29.992188 -1.085938 22.671875 -7.546875 C 15.347656 -14.015625 11.6875 -22.21875 11.6875 -32.15625 C 11.6875 -44.226562 16.273438 -53.601562 25.453125 -60.28125 C 34.640625 -66.96875 47.554688 -70.3125 64.203125 -70.3125 L 83.5 -70.3125 L 83.5 -79.421875 C 83.5 -86.359375 81.425781 -91.878906 77.28125 -95.984375 C 73.132812 -100.085938 67.023438 -102.140625 58.953125 -102.140625 C 51.878906 -102.140625 45.945312 -100.351562 41.15625 -96.78125 C 36.375 -93.207031 33.984375 -88.882812 33.984375 -83.8125 L 14.046875 -83.8125 C 14.046875 -89.601562 16.097656 -95.195312 20.203125 -100.59375 C 24.316406 -105.988281 29.890625 -110.257812 36.921875 -113.40625 C 43.960938 -116.550781 51.695312 -118.125 60.125 -118.125 C 73.488281 -118.125 83.957031 -114.78125 91.53125 -108.09375 C 99.101562 -101.414062 103.035156 -92.21875 103.328125 -80.5 L 103.328125 -27.125 C 103.328125 -16.46875 104.6875 -8 107.40625 -1.71875 L 107.40625 0 Z M 53.703125 -15.109375 C 59.921875 -15.109375 65.816406 -16.71875 71.390625 -19.9375 C 76.960938 -23.15625 81 -27.335938 83.5 -32.484375 L 83.5 -56.265625 L 67.953125 -56.265625 C 43.660156 -56.265625 31.515625 -49.15625 31.515625 -34.9375 C 31.515625 -28.726562 33.585938 -23.867188 37.734375 -20.359375 C 41.878906 -16.859375 47.203125 -15.109375 53.703125 -15.109375 Z M 53.703125 -15.109375 "/></g></g></g><g fill="#ffffff" fill-opacity="1"><g transform="translate(859.448133, 291.830842)"><g><path d="M 86.609375 0 C 85.460938 -2.289062 84.53125 -6.363281 83.8125 -12.21875 C 74.59375 -2.644531 63.59375 2.140625 50.8125 2.140625 C 39.375 2.140625 29.992188 -1.085938 22.671875 -7.546875 C 15.347656 -14.015625 11.6875 -22.21875 11.6875 -32.15625 C 11.6875 -44.226562 16.273438 -53.601562 25.453125 -60.28125 C 34.640625 -66.96875 47.554688 -70.3125 64.203125 -70.3125 L 83.5 -70.3125 L 83.5 -79.421875 C 83.5 -86.359375 81.425781 -91.878906 77.28125 -95.984375 C 73.132812 -100.085938 67.023438 -102.140625 58.953125 -102.140625 C 51.878906 -102.140625 45.945312 -100.351562 41.15625 -96.78125 C 36.375 -93.207031 33.984375 -88.882812 33.984375 -83.8125 L 14.046875 -83.8125 C 14.046875 -89.601562 16.097656 -95.195312 20.203125 -100.59375 C 24.316406 -105.988281 29.890625 -110.257812 36.921875 -113.40625 C 43.960938 -116.550781 51.695312 -118.125 60.125 -118.125 C 73.488281 -118.125 83.957031 -114.78125 91.53125 -108.09375 C 99.101562 -101.414062 103.035156 -92.21875 103.328125 -80.5 L 103.328125 -27.125 C 103.328125 -16.46875 104.6875 -8 107.40625 -1.71875 L 107.40625 0 Z M 53.703125 -15.109375 C 59.921875 -15.109375 65.816406 -16.71875 71.390625 -19.9375 C 76.960938 -23.15625 81 -27.335938 83.5 -32.484375 L 83.5 -56.265625 L 67.953125 -56.265625 C 43.660156 -56.265625 31.515625 -49.15625 31.515625 -34.9375 C 31.515625 -28.726562 33.585938 -23.867188 37.734375 -20.359375 C 41.878906 -16.859375 47.203125 -15.109375 53.703125 -15.109375 Z M 53.703125 -15.109375 "/></g></g></g><g fill="#ffffff" fill-opacity="1"><g transform="translate(978.854182, 291.830842)"><g><path d="M 15.4375 -10.390625 C 15.4375 -13.828125 16.453125 -16.6875 18.484375 -18.96875 C 20.523438 -21.257812 23.582031 -22.40625 27.65625 -22.40625 C 31.726562 -22.40625 34.816406 -21.257812 36.921875 -18.96875 C 39.035156 -16.6875 40.09375 -13.828125 40.09375 -10.390625 C 40.09375 -7.109375 39.035156 -4.359375 36.921875 -2.140625 C 34.816406 0.0664062 31.726562 1.171875 27.65625 1.171875 C 23.582031 1.171875 20.523438 0.0664062 18.484375 -2.140625 C 16.453125 -4.359375 15.4375 -7.109375 15.4375 -10.390625 Z M 15.4375 -10.390625 "/></g></g></g><g fill="#ffffff" fill-opacity="1"><g transform="translate(1036.63602, 291.830842)"><g><path d="M 79.109375 0 C 77.671875 -2.789062 76.632812 -6.253906 76 -10.390625 C 68.488281 -2.035156 58.734375 2.140625 46.734375 2.140625 C 35.367188 2.140625 25.953125 -1.144531 18.484375 -7.71875 C 11.015625 -14.289062 7.28125 -22.578125 7.28125 -32.578125 C 7.28125 -44.867188 11.835938 -54.300781 20.953125 -60.875 C 30.066406 -67.457031 43.234375 -70.78125 60.453125 -70.84375 L 74.703125 -70.84375 L 74.703125 -77.5 C 74.703125 -82.851562 73.328125 -87.140625 70.578125 -90.359375 C 67.828125 -93.578125 63.488281 -95.1875 57.5625 -95.1875 C 52.34375 -95.1875 48.25 -93.929688 45.28125 -91.421875 C 42.320312 -88.921875 40.84375 -85.492188 40.84375 -81.140625 L 9.859375 -81.140625 C 9.859375 -87.859375 11.929688 -94.070312 16.078125 -99.78125 C 20.222656 -105.5 26.082031 -109.984375 33.65625 -113.234375 C 41.226562 -116.492188 49.734375 -118.125 59.171875 -118.125 C 73.460938 -118.125 84.804688 -114.53125 93.203125 -107.34375 C 101.597656 -100.164062 105.796875 -90.070312 105.796875 -77.0625 L 105.796875 -26.796875 C 105.867188 -15.796875 107.40625 -7.472656 110.40625 -1.828125 L 110.40625 0 Z M 53.484375 -21.546875 C 58.054688 -21.546875 62.269531 -22.5625 66.125 -24.59375 C 69.988281 -26.632812 72.847656 -29.367188 74.703125 -32.796875 L 74.703125 -52.734375 L 63.125 -52.734375 C 47.625 -52.734375 39.375 -47.375 38.375 -36.65625 L 38.265625 -34.828125 C 38.265625 -30.972656 39.617188 -27.796875 42.328125 -25.296875 C 45.046875 -22.796875 48.765625 -21.546875 53.484375 -21.546875 Z M 53.484375 -21.546875 "/></g></g></g><g fill="#ffffff" fill-opacity="1"><g transform="translate(1154.327061, 291.830842)"><g><path d="M 44.59375 0 L 13.5 0 L 13.5 -115.96875 L 44.59375 -115.96875 Z M 11.6875 -145.984375 C 11.6875 -150.628906 13.238281 -154.453125 16.34375 -157.453125 C 19.457031 -160.453125 23.691406 -161.953125 29.046875 -161.953125 C 34.335938 -161.953125 38.550781 -160.453125 41.6875 -157.453125 C 44.832031 -154.453125 46.40625 -150.628906 46.40625 -145.984375 C 46.40625 -141.265625 44.816406 -137.40625 41.640625 -134.40625 C 38.460938 -131.40625 34.265625 -129.90625 29.046875 -129.90625 C 23.828125 -129.90625 19.628906 -131.40625 16.453125 -134.40625 C 13.273438 -137.40625 11.6875 -141.265625 11.6875 -145.984375 Z M 11.6875 -145.984375 "/></g></g></g></svg>