<svg xmlns="http://www.w3.org/2000/svg" viewBox="0 0 54.37 54.13"><defs><style>.cls-1{fill:#e11b22;}.cls-2{fill:#002c5d;}</style></defs><g id="Layer_2" data-name="Layer 2"><g id="Layer_1-2" data-name="Layer 1"><path class="cls-1" d="M39.17,0a15.17,15.17,0,0,0-12,5.87,24.92,24.92,0,0,1,4.77,1.22l.08,0a10.8,10.8,0,1,1-3.58,9.18,13.8,13.8,0,0,0-1.62-.47h0l-.55-.11h0A14.46,14.46,0,0,0,24,15.46,15.2,15.2,0,1,0,39.17,0"/><path class="cls-2" d="M39.17,30.4h-.49v.34a15.27,15.27,0,1,1-1.49-6.6,8.67,8.67,0,0,0,1.7.16A9.44,9.44,0,0,0,45.09,22a23.4,23.4,0,1,0,1.7,8.76c0-.78,0-1.55-.11-2.32a15.06,15.06,0,0,1-7.51,2"/></g></g></svg>