<svg xmlns="http://www.w3.org/2000/svg" xmlns:xlink="http://www.w3.org/1999/xlink" width="1753" zoomAndPan="magnify" viewBox="0 0 1314.75 437.249996" height="583" preserveAspectRatio="xMidYMid meet" version="1.0"><defs><g/><clipPath id="86a84acac9"><path d="M 100.695312 81.535156 L 373.976562 81.535156 L 373.976562 307 L 100.695312 307 Z M 100.695312 81.535156 " clip-rule="nonzero"/></clipPath><clipPath id="7606808324"><path d="M 147 181 L 333 181 L 333 354.816406 L 147 354.816406 Z M 147 181 " clip-rule="nonzero"/></clipPath></defs><g clip-path="url(#86a84acac9)"><path fill="#00274f" d="M 237.40625 139.0625 C 281.132812 139.0625 316.59375 174.523438 316.59375 218.246094 C 316.59375 219.726562 316.550781 221.195312 316.472656 222.652344 C 325.15625 233.292969 332.464844 245.351562 338.074219 258.902344 C 343.273438 271.453125 346.683594 284.675781 348.359375 298.121094 C 364.5625 275.648438 374.121094 248.0625 374.121094 218.246094 C 374.121094 142.757812 312.898438 81.535156 237.40625 81.535156 C 161.917969 81.535156 100.695312 142.757812 100.695312 218.246094 C 100.695312 252.101562 113.011719 283.078125 133.402344 306.960938 C 154.910156 303.492188 176.253906 296.132812 191.601562 282.84375 C 171.402344 268.492188 158.222656 244.90625 158.222656 218.246094 C 158.222656 174.523438 193.683594 139.0625 237.40625 139.0625 Z M 237.40625 139.0625 " fill-opacity="1" fill-rule="evenodd"/></g><g clip-path="url(#7606808324)"><path fill="#70459b" d="M 214.285156 181.722656 C 253.046875 254.230469 215.105469 305.707031 147.507812 321.226562 C 171.542969 342.230469 202.992188 354.960938 237.40625 354.960938 C 274.613281 354.960938 308.34375 340.082031 332.996094 315.964844 C 332.335938 259.011719 297.605469 200.246094 214.285156 181.722656 Z M 214.285156 181.722656 " fill-opacity="1" fill-rule="evenodd"/></g><g fill="#00274f" fill-opacity="1"><g transform="translate(425.663384, 293.482533)"><g><path d="M 9.75 -59.0625 C 9.75 -70.425781 11.984375 -80.644531 16.453125 -89.71875 C 20.921875 -98.789062 27.140625 -105.789062 35.109375 -110.71875 C 43.078125 -115.65625 52.171875 -118.125 62.390625 -118.125 C 78.179688 -118.125 90.953125 -112.65625 100.703125 -101.71875 C 110.460938 -90.789062 115.34375 -76.25 115.34375 -58.09375 L 115.34375 -56.703125 C 115.34375 -45.410156 113.179688 -35.28125 108.859375 -26.3125 C 104.535156 -17.34375 98.351562 -10.359375 90.3125 -5.359375 C 82.269531 -0.359375 73.03125 2.140625 62.59375 2.140625 C 46.875 2.140625 34.132812 -3.320312 24.375 -14.25 C 14.625 -25.1875 9.75 -39.660156 9.75 -57.671875 Z M 29.6875 -56.703125 C 29.6875 -43.835938 32.671875 -33.507812 38.640625 -25.71875 C 44.609375 -17.9375 52.59375 -14.046875 62.59375 -14.046875 C 72.675781 -14.046875 80.679688 -17.992188 86.609375 -25.890625 C 92.546875 -33.785156 95.515625 -44.84375 95.515625 -59.0625 C 95.515625 -71.78125 92.492188 -82.085938 86.453125 -89.984375 C 80.410156 -97.878906 72.390625 -101.828125 62.390625 -101.828125 C 52.597656 -101.828125 44.695312 -97.929688 38.6875 -90.140625 C 32.6875 -82.359375 29.6875 -71.210938 29.6875 -56.703125 Z M 29.6875 -56.703125 "/></g></g><g transform="translate(550.860354, 293.482533)"><g><path d="M 71.0625 -98.1875 C 68.0625 -98.6875 64.8125 -98.9375 61.3125 -98.9375 C 48.3125 -98.9375 39.488281 -93.398438 34.84375 -82.328125 L 34.84375 0 L 15 0 L 15 -115.984375 L 34.296875 -115.984375 L 34.625 -102.578125 C 41.125 -112.941406 50.34375 -118.125 62.28125 -118.125 C 66.132812 -118.125 69.0625 -117.625 71.0625 -116.625 Z M 71.0625 -98.1875 "/></g></g><g transform="translate(625.142462, 293.482533)"><g><path d="M 61.53125 -14.046875 C 68.601562 -14.046875 74.78125 -16.1875 80.0625 -20.46875 C 85.351562 -24.757812 88.285156 -30.117188 88.859375 -36.546875 L 107.625 -36.546875 C 107.257812 -29.898438 104.96875 -23.578125 100.75 -17.578125 C 96.539062 -11.578125 90.914062 -6.789062 83.875 -3.21875 C 76.832031 0.351562 69.382812 2.140625 61.53125 2.140625 C 45.738281 2.140625 33.175781 -3.128906 23.84375 -13.671875 C 14.519531 -24.210938 9.859375 -38.628906 9.859375 -56.921875 L 9.859375 -60.25 C 9.859375 -71.53125 11.929688 -81.566406 16.078125 -90.359375 C 20.222656 -99.148438 26.171875 -105.972656 33.921875 -110.828125 C 41.679688 -115.691406 50.847656 -118.125 61.421875 -118.125 C 74.429688 -118.125 85.238281 -114.226562 93.84375 -106.4375 C 102.457031 -98.65625 107.050781 -88.546875 107.625 -76.109375 L 88.859375 -76.109375 C 88.285156 -83.609375 85.441406 -89.769531 80.328125 -94.59375 C 75.222656 -99.414062 68.921875 -101.828125 61.421875 -101.828125 C 51.347656 -101.828125 43.539062 -98.203125 38 -90.953125 C 32.457031 -83.703125 29.6875 -73.210938 29.6875 -59.484375 L 29.6875 -55.734375 C 29.6875 -42.367188 32.4375 -32.078125 37.9375 -24.859375 C 43.445312 -17.648438 51.3125 -14.046875 61.53125 -14.046875 Z M 61.53125 -14.046875 "/></g></g><g transform="translate(740.04927, 293.482533)"><g><path d="M 86.609375 0 C 85.460938 -2.289062 84.535156 -6.363281 83.828125 -12.21875 C 74.609375 -2.644531 63.601562 2.140625 50.8125 2.140625 C 39.375 2.140625 29.992188 -1.09375 22.671875 -7.5625 C 15.347656 -14.03125 11.6875 -22.226562 11.6875 -32.15625 C 11.6875 -44.238281 16.273438 -53.617188 25.453125 -60.296875 C 34.640625 -66.972656 47.554688 -70.3125 64.203125 -70.3125 L 83.5 -70.3125 L 83.5 -79.4375 C 83.5 -86.363281 81.425781 -91.878906 77.28125 -95.984375 C 73.132812 -100.097656 67.023438 -102.15625 58.953125 -102.15625 C 51.878906 -102.15625 45.945312 -100.367188 41.15625 -96.796875 C 36.375 -93.222656 33.984375 -88.898438 33.984375 -83.828125 L 14.046875 -83.828125 C 14.046875 -89.609375 16.097656 -95.195312 20.203125 -100.59375 C 24.316406 -105.988281 29.890625 -110.257812 36.921875 -113.40625 C 43.960938 -116.550781 51.703125 -118.125 60.140625 -118.125 C 73.503906 -118.125 83.972656 -114.78125 91.546875 -108.09375 C 99.117188 -101.414062 103.046875 -92.21875 103.328125 -80.5 L 103.328125 -27.125 C 103.328125 -16.46875 104.6875 -8 107.40625 -1.71875 L 107.40625 0 Z M 53.703125 -15.109375 C 59.921875 -15.109375 65.816406 -16.71875 71.390625 -19.9375 C 76.960938 -23.15625 81 -27.335938 83.5 -32.484375 L 83.5 -56.28125 L 67.953125 -56.28125 C 43.660156 -56.28125 31.515625 -49.164062 31.515625 -34.9375 C 31.515625 -28.726562 33.585938 -23.867188 37.734375 -20.359375 C 41.878906 -16.859375 47.203125 -15.109375 53.703125 -15.109375 Z M 53.703125 -15.109375 "/></g></g><g transform="translate(859.458024, 293.482533)"><g><path d="M 86.609375 0 C 85.460938 -2.289062 84.535156 -6.363281 83.828125 -12.21875 C 74.609375 -2.644531 63.601562 2.140625 50.8125 2.140625 C 39.375 2.140625 29.992188 -1.09375 22.671875 -7.5625 C 15.347656 -14.03125 11.6875 -22.226562 11.6875 -32.15625 C 11.6875 -44.238281 16.273438 -53.617188 25.453125 -60.296875 C 34.640625 -66.972656 47.554688 -70.3125 64.203125 -70.3125 L 83.5 -70.3125 L 83.5 -79.4375 C 83.5 -86.363281 81.425781 -91.878906 77.28125 -95.984375 C 73.132812 -100.097656 67.023438 -102.15625 58.953125 -102.15625 C 51.878906 -102.15625 45.945312 -100.367188 41.15625 -96.796875 C 36.375 -93.222656 33.984375 -88.898438 33.984375 -83.828125 L 14.046875 -83.828125 C 14.046875 -89.609375 16.097656 -95.195312 20.203125 -100.59375 C 24.316406 -105.988281 29.890625 -110.257812 36.921875 -113.40625 C 43.960938 -116.550781 51.703125 -118.125 60.140625 -118.125 C 73.503906 -118.125 83.972656 -114.78125 91.546875 -108.09375 C 99.117188 -101.414062 103.046875 -92.21875 103.328125 -80.5 L 103.328125 -27.125 C 103.328125 -16.46875 104.6875 -8 107.40625 -1.71875 L 107.40625 0 Z M 53.703125 -15.109375 C 59.921875 -15.109375 65.816406 -16.71875 71.390625 -19.9375 C 76.960938 -23.15625 81 -27.335938 83.5 -32.484375 L 83.5 -56.28125 L 67.953125 -56.28125 C 43.660156 -56.28125 31.515625 -49.164062 31.515625 -34.9375 C 31.515625 -28.726562 33.585938 -23.867188 37.734375 -20.359375 C 41.878906 -16.859375 47.203125 -15.109375 53.703125 -15.109375 Z M 53.703125 -15.109375 "/></g></g><g transform="translate(978.866778, 293.482533)"><g><path d="M 15.4375 -10.390625 C 15.4375 -13.828125 16.453125 -16.6875 18.484375 -18.96875 C 20.523438 -21.257812 23.582031 -22.40625 27.65625 -22.40625 C 31.726562 -22.40625 34.816406 -21.257812 36.921875 -18.96875 C 39.035156 -16.6875 40.09375 -13.828125 40.09375 -10.390625 C 40.09375 -7.109375 39.035156 -4.359375 36.921875 -2.140625 C 34.816406 0.0664062 31.726562 1.171875 27.65625 1.171875 C 23.582031 1.171875 20.523438 0.0664062 18.484375 -2.140625 C 16.453125 -4.359375 15.4375 -7.109375 15.4375 -10.390625 Z M 15.4375 -10.390625 "/></g></g></g><g fill="#70459b" fill-opacity="1"><g transform="translate(1036.650507, 293.482533)"><g><path d="M 79.109375 0 C 77.679688 -2.789062 76.644531 -6.253906 76 -10.390625 C 68.5 -2.035156 58.742188 2.140625 46.734375 2.140625 C 35.367188 2.140625 25.953125 -1.144531 18.484375 -7.71875 C 11.023438 -14.289062 7.296875 -22.582031 7.296875 -32.59375 C 7.296875 -44.882812 11.847656 -54.316406 20.953125 -60.890625 C 30.066406 -67.460938 43.234375 -70.785156 60.453125 -70.859375 L 74.71875 -70.859375 L 74.71875 -77.5 C 74.71875 -82.863281 73.335938 -87.148438 70.578125 -90.359375 C 67.828125 -93.578125 63.488281 -95.1875 57.5625 -95.1875 C 52.34375 -95.1875 48.25 -93.9375 45.28125 -91.4375 C 42.320312 -88.9375 40.84375 -85.503906 40.84375 -81.140625 L 9.859375 -81.140625 C 9.859375 -87.859375 11.929688 -94.078125 16.078125 -99.796875 C 20.222656 -105.515625 26.082031 -110 33.65625 -113.25 C 41.226562 -116.5 49.734375 -118.125 59.171875 -118.125 C 73.460938 -118.125 84.804688 -114.53125 93.203125 -107.34375 C 101.597656 -100.164062 105.796875 -90.078125 105.796875 -77.078125 L 105.796875 -26.796875 C 105.867188 -15.796875 107.40625 -7.472656 110.40625 -1.828125 L 110.40625 0 Z M 53.484375 -21.546875 C 58.054688 -21.546875 62.269531 -22.5625 66.125 -24.59375 C 69.988281 -26.632812 72.851562 -29.367188 74.71875 -32.796875 L 74.71875 -52.734375 L 63.140625 -52.734375 C 47.628906 -52.734375 39.375 -47.375 38.375 -36.65625 L 38.265625 -34.84375 C 38.265625 -30.976562 39.625 -27.796875 42.34375 -25.296875 C 45.0625 -22.796875 48.773438 -21.546875 53.484375 -21.546875 Z M 53.484375 -21.546875 "/></g></g><g transform="translate(1154.344234, 293.482533)"><g><path d="M 44.59375 0 L 13.5 0 L 13.5 -115.984375 L 44.59375 -115.984375 Z M 11.6875 -146 C 11.6875 -150.644531 13.238281 -154.46875 16.34375 -157.46875 C 19.457031 -160.46875 23.691406 -161.96875 29.046875 -161.96875 C 34.335938 -161.96875 38.554688 -160.46875 41.703125 -157.46875 C 44.847656 -154.46875 46.421875 -150.644531 46.421875 -146 C 46.421875 -141.28125 44.828125 -137.421875 41.640625 -134.421875 C 38.460938 -131.421875 34.265625 -129.921875 29.046875 -129.921875 C 23.828125 -129.921875 19.628906 -131.421875 16.453125 -134.421875 C 13.273438 -137.421875 11.6875 -141.28125 11.6875 -146 Z M 11.6875 -146 "/></g></g></g></svg>